HIERARCHY
ROOT Hips
{
    OFFSET   0.000000   0.000000   0.000000
    CHANNELS 6 Xposition Yposition Zposition Zrotation Xrotation Yrotation
    JOINT Chest
    {
        OFFSET   0.000000   8.007230   0.000000
        CHANNELS 3 Zrotation Xrotation Yrotation
        JOINT Chest2
        {
            OFFSET   0.000000  22.077100   0.000000
            CHANNELS 3 Zrotation Xrotation Yrotation
            JOINT Neck
            {
                OFFSET   0.000000  23.255100   0.000000
                CHANNELS 3 Zrotation Xrotation Yrotation
                JOINT Head
                {
                    OFFSET   0.000000  14.370100   1.956600
                    CHANNELS 3 Zrotation Xrotation Yrotation
                    End Site
                    {
                        OFFSET   0.000000  19.566000   0.000000
                    }
                }
            }
            JOINT LeftCollar
            {
                OFFSET   3.911900  19.017000  -0.467063
                CHANNELS 3 Zrotation Xrotation Yrotation
                JOINT LeftShoulder
                {
                    OFFSET  10.383700   0.000000   0.000000
                    CHANNELS 3 Zrotation Xrotation Yrotation
                    JOINT LeftElbow
                    {
                        OFFSET  26.662100   0.001193   0.000980
                        CHANNELS 3 Zrotation Xrotation Yrotation
                        JOINT LeftWrist
                        {
                            OFFSET  28.869000  -0.000059  -0.000082
                            CHANNELS 3 Zrotation Xrotation Yrotation
                            JOINT LeftFinger0
                            {
                                OFFSET   2.044650  -2.323450   3.252850
                                CHANNELS 3 Zrotation Xrotation Yrotation
                                JOINT LeftFinger01
                                {
                                    OFFSET   3.088130   0.000000   0.000000
                                    CHANNELS 3 Zrotation Xrotation Yrotation
                                    JOINT LeftFinger02
                                    {
                                        OFFSET   2.639460   0.000000   0.000000
                                        CHANNELS 3 Zrotation Xrotation Yrotation
                                        End Site
                                        {
                                            OFFSET   2.582190   0.000000   0.000000
                                        }
                                    }
                                }
                            }
                            JOINT LeftFinger1
                            {
                                OFFSET   8.364480   0.000000   3.252850
                                CHANNELS 3 Zrotation Xrotation Yrotation
                                JOINT LeftFinger11
                                {
                                    OFFSET   4.646930   0.000000   0.000000
                                    CHANNELS 3 Zrotation Xrotation Yrotation
                                    JOINT LeftFinger12
                                    {
                                        OFFSET   2.323470   0.000000   0.000000
                                        CHANNELS 3 Zrotation Xrotation Yrotation
                                        End Site
                                        {
                                            OFFSET   2.273050   0.000000   0.000000
                                        }
                                    }
                                }
                            }
                            JOINT LeftFinger2
                            {
                                OFFSET   8.364490   0.000016   1.078090
                                CHANNELS 3 Zrotation Xrotation Yrotation
                                JOINT LeftFinger21
                                {
                                    OFFSET   5.111610   0.000000   0.000000
                                    CHANNELS 3 Zrotation Xrotation Yrotation
                                    JOINT LeftFinger22
                                    {
                                        OFFSET   2.788150   0.000016   0.000000
                                        CHANNELS 3 Zrotation Xrotation Yrotation
                                        End Site
                                        {
                                            OFFSET   2.727660   0.000000   0.000000
                                        }
                                    }
                                }
                            }
                            JOINT LeftFinger3
                            {
                                OFFSET   7.899780   0.000015  -1.078090
                                CHANNELS 3 Zrotation Xrotation Yrotation
                                JOINT LeftFinger31
                                {
                                    OFFSET   4.646930   0.000000   0.000000
                                    CHANNELS 3 Zrotation Xrotation Yrotation
                                    JOINT LeftFinger32
                                    {
                                        OFFSET   2.323470   0.000000   0.000000
                                        CHANNELS 3 Zrotation Xrotation Yrotation
                                        End Site
                                        {
                                            OFFSET   2.273050   0.000000   0.000000
                                        }
                                    }
                                }
                            }
                            JOINT LeftFinger4
                            {
                                OFFSET   7.435090   0.000000  -3.252850
                                CHANNELS 3 Zrotation Xrotation Yrotation
                                JOINT LeftFinger41
                                {
                                    OFFSET   3.717550   0.000000   0.000000
                                    CHANNELS 3 Zrotation Xrotation Yrotation
                                    JOINT LeftFinger42
                                    {
                                        OFFSET   1.858770   0.000000   0.000000
                                        CHANNELS 3 Zrotation Xrotation Yrotation
                                        End Site
                                        {
                                            OFFSET   1.818440   0.000000   0.000000
                                        }
                                    }
                                }
                            }
                        }
                    }
                }
            }
            JOINT RightCollar
            {
                OFFSET  -3.911910  19.017000  -0.467062
                CHANNELS 3 Zrotation Xrotation Yrotation
                JOINT RightShoulder
                {
                    OFFSET -10.383700   0.000014   0.000000
                    CHANNELS 3 Zrotation Xrotation Yrotation
                    JOINT RightElbow
                    {
                        OFFSET -26.662100   0.001225   0.001091
                        CHANNELS 3 Zrotation Xrotation Yrotation
                        JOINT RightWrist
                        {
                            OFFSET -28.869000  -0.000020  -0.000085
                            CHANNELS 3 Zrotation Xrotation Yrotation
                            JOINT RightFinger0
                            {
                                OFFSET  -2.044650  -2.323490   3.252850
                                CHANNELS 3 Zrotation Xrotation Yrotation
                                JOINT RightFinger01
                                {
                                    OFFSET  -3.088130   0.000000   0.000000
                                    CHANNELS 3 Zrotation Xrotation Yrotation
                                    JOINT RightFinger02
                                    {
                                        OFFSET  -2.639460   0.000000   0.000000
                                        CHANNELS 3 Zrotation Xrotation Yrotation
                                        End Site
                                        {
                                            OFFSET  -2.582190   0.000000   0.000000
                                        }
                                    }
                                }
                            }
                            JOINT RightFinger1
                            {
                                OFFSET  -8.364480   0.000000   3.252850
                                CHANNELS 3 Zrotation Xrotation Yrotation
                                JOINT RightFinger11
                                {
                                    OFFSET  -4.646930   0.000000   0.000000
                                    CHANNELS 3 Zrotation Xrotation Yrotation
                                    JOINT RightFinger12
                                    {
                                        OFFSET  -2.323470   0.000000   0.000000
                                        CHANNELS 3 Zrotation Xrotation Yrotation
                                        End Site
                                        {
                                            OFFSET  -2.273050   0.000000   0.000000
                                        }
                                    }
                                }
                            }
                            JOINT RightFinger2
                            {
                                OFFSET  -8.364480   0.000000   1.078090
                                CHANNELS 3 Zrotation Xrotation Yrotation
                                JOINT RightFinger21
                                {
                                    OFFSET  -5.111620   0.000000   0.000000
                                    CHANNELS 3 Zrotation Xrotation Yrotation
                                    JOINT RightFinger22
                                    {
                                        OFFSET  -2.788160   0.000000   0.000000
                                        CHANNELS 3 Zrotation Xrotation Yrotation
                                        End Site
                                        {
                                            OFFSET  -2.727660   0.000000   0.000000
                                        }
                                    }
                                }
                            }
                            JOINT RightFinger3
                            {
                                OFFSET  -7.899780   0.000000  -1.078090
                                CHANNELS 3 Zrotation Xrotation Yrotation
                                JOINT RightFinger31
                                {
                                    OFFSET  -4.646930   0.000000   0.000000
                                    CHANNELS 3 Zrotation Xrotation Yrotation
                                    JOINT RightFinger32
                                    {
                                        OFFSET  -2.323470   0.000000   0.000000
                                        CHANNELS 3 Zrotation Xrotation Yrotation
                                        End Site
                                        {
                                            OFFSET  -2.273050   0.000000   0.000000
                                        }
                                    }
                                }
                            }
                            JOINT RightFinger4
                            {
                                OFFSET  -7.435090   0.000000  -3.252850
                                CHANNELS 3 Zrotation Xrotation Yrotation
                                JOINT RightFinger41
                                {
                                    OFFSET  -3.717550   0.000000   0.000000
                                    CHANNELS 3 Zrotation Xrotation Yrotation
                                    JOINT RightFinger42
                                    {
                                        OFFSET  -1.858760   0.000000   0.000000
                                        CHANNELS 3 Zrotation Xrotation Yrotation
                                        End Site
                                        {
                                            OFFSET  -1.818440   0.000000   0.000000
                                        }
                                    }
                                }
                            }
                        }
                    }
                }
            }
        }
    }
    JOINT LeftHip
    {
        OFFSET   9.783030   0.000000   0.000000
        CHANNELS 3 Zrotation Xrotation Yrotation
        JOINT LeftKnee
        {
            OFFSET   0.000063 -41.789100   0.000608
            CHANNELS 3 Zrotation Xrotation Yrotation
            JOINT LeftAnkle
            {
                OFFSET   0.000048 -41.133200  -0.000184
                CHANNELS 3 Zrotation Xrotation Yrotation
                JOINT LeftToe
                {
                    OFFSET   0.000000  -6.358960  14.674500
                    CHANNELS 3 Zrotation Xrotation Yrotation
                    End Site
                    {
                        OFFSET   0.000000   0.000000   3.913200
                    }
                }
            }
        }
    }
    JOINT RightHip
    {
        OFFSET  -9.783030   0.000000   0.000000
        CHANNELS 3 Zrotation Xrotation Yrotation
        JOINT RightKnee
        {
            OFFSET   0.000071 -41.789100   0.001239
            CHANNELS 3 Zrotation Xrotation Yrotation
            JOINT RightAnkle
            {
                OFFSET   0.000037 -41.133200  -0.000166
                CHANNELS 3 Zrotation Xrotation Yrotation
                JOINT RightToe
                {
                    OFFSET   0.000000  -6.358960  14.674500
                    CHANNELS 3 Zrotation Xrotation Yrotation
                    End Site
                    {
                        OFFSET   0.000000   0.000000   3.913200
                    }
                }
            }
        }
    }
}
MOTION
Frames: 6
Frame Time:   0.016667
 -1.154480  89.584500  -2.649680  -1.861690  -8.572000  -0.222283   0.674027   5.554100  -1.848210   1.539500  11.082900  -3.788660   3.607790  -8.295290   0.521957   6.273700 -16.616500  14.714800  -8.088290  -4.921630  -2.501790 -42.256300  19.022800 -73.642800  15.067300 -28.752500 -91.322700 -29.114300 -37.456800 -26.898300  20.852300  31.669400 -59.211900 -72.310300   0.002525   0.008068 -41.498800  -0.000025   0.000676 -39.799800   5.205190  -6.214880 -32.794800  -0.004862   0.002083 -23.027500  -0.006619   0.000000 -89.000000  -0.001693   0.001525 -92.013200   0.012083  -0.002531 -69.009900   0.000744   0.005484 -85.286200  -4.982850   0.410461 -85.304000   0.007645  -0.003683 -63.978000   0.002714   0.003542 -76.849600  -9.742910   2.264250 -109.998000  -0.001008  -0.007109 -76.965400   0.007481   0.003814  12.685900  -2.019760  11.139600  68.963100  17.286100  -8.141630  -5.506970  -1.264440  20.348500 -13.620900 -14.130100   2.286780 -46.476200  46.403800  92.062200  26.048500   0.004370  -0.002049   8.024290   0.000000  -0.002613  35.566000   9.775310  13.357500  30.038100   0.002304  -0.000378  21.026200   0.001510   0.000403  30.164500   2.887120   4.953710  45.430300  -0.003360  -0.004360  30.258200  -0.004212  -0.000334  28.787800   0.784768   1.427870  42.509900  -0.002977  -0.001663  28.311600  -0.003021  -0.000416  39.485700  -0.924339  -1.121930  59.242000  -0.002401  -0.006797  39.455200  -0.006002  -0.005478   1.160570  10.330700   0.672480   0.971072   0.041887   0.215042  -2.089260  -2.984370  -0.845493  -0.000000   0.000000   0.000000   4.567420  10.220400  -3.491640  -1.400820   1.319340  -2.487540  -1.958780  -4.224550   3.207250   0.000000   0.000000   0.000000
 -1.178250  89.584200  -2.620180  -1.860590  -8.551890  -0.243737   0.659790   5.543110  -1.820780   1.507780  11.061900  -3.732200   3.628450  -8.296700   0.523198   6.316600 -16.620100  14.579600  -8.113420  -4.912280  -2.537300 -42.261000  19.044600 -73.594400  14.976100 -28.583500 -91.843700 -28.916600 -37.451700 -26.604600  20.995500  31.742100 -59.351700 -71.996200   0.002395   0.007150 -41.289600   0.000000   0.000692 -39.616100   5.157940  -6.198750 -32.641800  -0.004880   0.002190 -22.883700  -0.006705   0.000000 -89.000000  -0.001625   0.001518 -91.764300   0.012157  -0.002472 -68.823200   0.000729   0.005414 -85.015600  -4.982860   0.433749 -85.034400   0.007653  -0.003661 -63.775800   0.002702   0.003495 -76.577700  -9.732190   2.310060 -109.998000  -0.001021  -0.007216 -76.697500   0.007582   0.003858  12.699500  -2.016850  11.094600  69.011200  17.280900  -8.193930  -5.479490  -1.259800  20.350000 -13.613600 -14.092700   2.267370 -46.507200  46.431900  92.105100  26.063700   0.004373  -0.002070   8.031850   0.000000  -0.002607  35.572300   9.768400  13.345500  30.041800   0.002276  -0.000398  21.028500   0.001483   0.000392  30.162200   2.882290   4.945840  45.426600  -0.003364  -0.004360  30.255600  -0.004206  -0.000339  28.788100   0.780799   1.420620  42.486500  -0.002979  -0.001660  28.296000  -0.003020  -0.000383  39.477500  -0.923248  -1.120750  59.229800  -0.002402  -0.013768  39.447100  -0.006002  -0.011245   1.168730  10.361300   0.650233   0.969372  -0.002904   0.238586  -2.089200  -2.984720  -0.825962  -0.000000   0.000000   0.000000   4.567260  10.228900  -3.525660  -1.382540   1.290310  -2.457600  -1.973950  -4.222620   3.233000   0.000000   0.000000  -0.000000
 -1.199620  89.583900  -2.592470  -1.862310  -8.535260  -0.258673   0.650254   5.532480  -1.794300   1.486100  11.041300  -3.677770   3.630350  -8.275420   0.522799   6.333960 -16.576600  14.462700  -8.129480  -4.914930  -2.562040 -42.156300  19.130300 -73.629000  15.005700 -28.571100 -92.071400 -28.603100 -37.549400 -26.309000  21.050000  31.750000 -59.397700 -71.859900   0.002271   0.006662 -41.198700   0.000000   0.000707 -39.388300   5.136910  -6.217170 -32.455500  -0.004898   0.002301 -22.728800  -0.006793   0.000032 -89.000000  -0.001552   0.001494 -91.546700   0.012224  -0.002408 -68.660000   0.000717   0.005334 -84.789200  -4.982790   0.453298 -84.808800   0.007680  -0.003630 -63.606600   0.002708   0.003452 -76.349600  -9.722670   2.348540 -109.998000  -0.001028  -0.007326 -76.472800   0.007682   0.003902  12.706700  -2.024260  11.064600  69.052000  17.309600  -8.244730  -5.426490  -1.280260  20.309000 -13.604400 -14.037800   2.255430 -46.534800  46.456800  92.143200  26.058700   0.004370  -0.002070   8.029350   0.000000  -0.002611  35.569100   9.773980  13.353500  30.041000   0.002242  -0.000420  21.028000   0.001445   0.000380  30.158300   2.894210   4.966570  45.423900  -0.003366  -0.004360  30.253200  -0.004209  -0.000341  28.787800   0.787209   1.432290  42.455200  -0.002980  -0.001662  28.275200  -0.003021  -0.000348  39.467500  -0.920840  -1.118160  59.214800  -0.002402  -0.015188  39.437100  -0.006005  -0.012592   1.176010  10.373300   0.631737   0.969615  -0.004918   0.257704  -2.089470  -2.997650  -0.813130   0.000000   0.000000  -0.000000   4.573430  10.240800  -3.555330  -1.366400   1.259880  -2.439540  -1.988840  -4.220860   3.257000   0.000000   0.000000   0.000000
 -1.218790  89.583600  -2.567010  -1.863190  -8.522920  -0.265349   0.645246   5.521750  -1.771690   1.472920  11.020400  -3.631470   3.629850  -8.228450   0.520144   6.312750 -16.483200  14.365300  -8.138060  -4.921110  -2.580320 -41.975300  19.244000 -73.732900  15.055700 -28.581600 -92.111800 -28.140500 -37.681800 -25.972000  21.062300  31.749900 -59.412200 -71.833600   0.002147   0.006320 -41.181100   0.000000   0.000722 -39.158200   5.133400  -6.271420 -32.268800  -0.004916   0.002413 -22.583400  -0.006883   0.000075 -89.000000  -0.001481   0.001470 -91.361200   0.012290  -0.002344 -68.520900   0.000706   0.005254 -84.601100  -4.982660   0.469582 -84.621400   0.007705  -0.003599 -63.466000   0.002716   0.003408 -76.223200  -9.717820   2.369950 -109.998000  -0.001037  -0.007438 -76.348300   0.007783   0.003947  12.709300  -2.034750  11.051200  69.077900  17.366300  -8.273450  -5.362040  -1.313810  20.227500 -13.594800 -13.974200   2.245930 -46.557200  46.476900  92.174100  26.045200   0.004367  -0.002069   8.022630   0.000000  -0.002616  35.560200   9.784550  13.372300  30.035400   0.002210  -0.000441  21.024800   0.001403   0.000367  30.148600   2.913790   5.001830  45.414000  -0.003366  -0.004359  30.245700  -0.004211  -0.000343  28.787200   0.801161   1.457710  42.411900  -0.002980  -0.001666  28.246300  -0.003022  -0.000311  39.451100  -0.916223  -1.113190  59.190000  -0.002402  -0.015391  39.420600  -0.006008  -0.012784   1.182700  10.375900   0.621997   0.971246  -0.005205   0.267482  -2.090000  -3.023600  -0.807520   0.000000   0.000000   0.000000   4.578390  10.254900  -3.572330  -1.351010   1.231620  -2.432390  -2.005300  -4.219820   3.278660   0.000000   0.000000   0.000000
 -1.234860  89.583300  -2.544090  -1.862740  -8.517130  -0.261526   0.644271   5.511020  -1.758170   1.468770  10.999200  -3.603870   3.611590  -8.165210   0.513298   6.264090 -16.358700  14.305200  -8.140630  -4.932390  -2.589680 -41.827800  19.345700 -73.859400  15.139700 -28.668700 -91.912700 -27.625900 -37.838500 -25.585400  21.043000  31.766900 -59.403300 -71.871800   0.002018   0.005993 -41.206600   0.000035   0.000737 -38.946600   5.170990  -6.370240 -32.104500  -0.004936   0.002524 -22.468300  -0.006969   0.000092 -89.000000  -0.001417   0.001462 -91.209500   0.012360  -0.002276 -68.407100   0.000696   0.005183 -84.458800  -4.982490   0.481932 -84.479600   0.007709  -0.003571 -63.359800   0.002723   0.003359 -76.203100  -9.717980   2.373430 -109.998000  -0.001055  -0.007549 -76.328500   0.007892   0.003996  12.710200  -2.040300  11.050300  69.083200  17.428600  -8.275570  -5.300230  -1.339880  20.131700 -13.582200 -13.909600   2.239970 -46.573000  46.491100  92.195900  26.024600   0.004371  -0.002050   8.012320   0.000000  -0.002615  35.534200   9.795190  13.399400  30.016400   0.002185  -0.000460  21.011800   0.001366   0.000354  30.127000   2.928870   5.031910  45.384000  -0.003366  -0.004360  30.225600  -0.004211  -0.000346  28.786300   0.819197   1.490600  42.347300  -0.002977  -0.001668  28.203300  -0.003020  -0.000284  39.420500  -0.907510  -1.103800  59.143900  -0.002404  -0.010444  39.389900  -0.006005  -0.006942   1.189880  10.362500   0.628072   0.975535   0.041090   0.263889  -2.091100  -3.063510  -0.814620  -0.000000   0.000000   0.000000   4.587510  10.271800  -3.569150  -1.334040   1.206550  -2.449910  -2.026270  -4.219940   3.293830   0.000000   0.000000   0.000000
 -1.249440  89.582700  -2.524730  -1.861100  -8.515850  -0.249559   0.644196   5.499360  -1.753100   1.468210  10.975900  -3.593460   3.580000  -8.091140   0.504491   6.214390 -16.213400  14.264500  -8.141940  -4.940160  -2.598780 -41.701200  19.431400 -73.991800  15.253700 -28.795800 -91.462900 -27.078300 -37.985100 -25.213900  21.015400  31.786500 -59.380000 -71.971200   0.001886   0.005683 -41.272900   0.000089   0.000751 -38.789300   5.240610  -6.484880 -31.979800  -0.004955   0.002632 -22.385900  -0.007056   0.000097 -89.000000  -0.001356   0.001456 -91.106500   0.012432  -0.002209 -68.329900   0.000688   0.005114 -84.353600  -4.982290   0.491154 -84.375000   0.007712  -0.003546 -63.281300   0.002729   0.003309 -76.200200  -9.718590   2.373930 -109.998000  -0.001074  -0.007658 -76.325700   0.008001   0.004045  12.709600  -2.042650  11.050200  69.087300  17.495000  -8.273570  -5.246570  -1.364510  20.025100 -13.576400 -13.851000   2.233060 -46.579800  46.497100  92.205200  25.996100   0.004375  -0.002023   7.998040   0.000000  -0.002614  35.500000   9.808250  13.432000  29.992800   0.002163  -0.000479  20.994900   0.001326   0.000341  30.102300   2.943600   5.062080  45.348700  -0.003366  -0.004361  30.202300  -0.004210  -0.000352  28.785200   0.841127   1.530590  42.282300  -0.002974  -0.001669  28.160000  -0.003019  -0.000236  39.387700  -0.898101  -1.093650  59.094400  -0.002405  -0.005401  39.356900  -0.006000  -0.000984   1.196560  10.349100   0.637695   0.981015   0.087386   0.255452  -2.092520  -3.093090  -0.828735  -0.000000   0.000000  -0.000000   4.601300  10.287700  -3.565950  -1.319700   1.193570  -2.476050  -2.048680  -4.221210   3.300570  -0.000000   0.000000   0.000000
